<svg width="616" height="101" viewBox="0 0 616 101" fill="none" xmlns="http://www.w3.org/2000/svg">
<path fill-rule="evenodd" clip-rule="evenodd" d="M175.861 66.001C175.861 85.0015 185.621 100.404 218.806 100.404C251.873 100.404 260.383 90.3816 262.438 76.5327H232.946C232.946 80.0432 228.275 83.5538 219.214 83.5538C211.879 83.5538 207.611 80.796 205.35 76.5327C204.568 75.0574 204.491 73.7242 204.491 71.6179H262.918C263.019 69.79 263.052 67.9137 263.052 66.001C263.052 43.9827 250.038 31.5974 218.806 31.5974C187.573 31.5974 175.861 43.9827 175.861 66.001ZM232.67 54.7672C233.452 56.2425 233.529 58.2778 233.529 58.2778H204.491C204.491 58.2778 204.568 56.2425 205.35 54.7672C207.59 50.5435 211.8 47.7976 219.01 47.7468C226.22 47.7976 230.43 50.5435 232.67 54.7672Z" fill="black"/>
<path d="M537.746 53.0996C537.746 70.9157 550.109 73.7242 579.39 73.7242C585.246 73.7242 586.547 76.7521 586.547 78.9023C586.547 81.0525 584.595 83.9195 577.438 83.9195C568.979 83.9195 567.678 80.5747 567.678 78.9023H537.746C537.746 92.6637 545.555 100.404 576.787 100.404C608.02 100.404 615.828 92.6637 615.828 78.9023C615.828 70.3014 611.924 66.001 610.622 64.5675C604.674 58.0153 594.92 58.0518 580.365 58.1064C578.998 58.1115 577.589 58.1168 576.136 58.1168C568.979 58.1168 567.027 55.2498 567.027 53.0996C567.027 50.9494 568.979 48.0824 576.136 48.0824C583.945 48.0824 585.897 51.4272 585.897 53.0996H614.526C614.526 39.3382 608.02 31.5974 576.787 31.5974C545.555 31.5974 537.746 39.3382 537.746 53.0996Z" fill="black"/>
<path fill-rule="evenodd" clip-rule="evenodd" d="M486.993 100.407C453.809 100.407 444.049 85.004 444.049 66.0034C444.049 43.9852 455.761 31.5999 486.993 31.5999C518.226 31.5999 531.24 43.9852 531.24 66.0034C531.24 67.9162 531.207 69.7925 531.105 71.6203H472.679C472.679 73.7267 472.756 75.0599 473.538 76.5351C475.798 80.7985 480.066 83.5563 487.401 83.5563C496.462 83.5563 501.133 80.0457 501.133 76.5351H530.625C528.571 90.3841 520.061 100.407 486.993 100.407ZM501.716 58.2803C501.716 58.2803 501.639 56.245 500.857 54.7697C498.618 50.546 494.408 47.8 487.197 47.7493C479.987 47.8 475.777 50.546 473.538 54.7697C472.756 56.245 472.679 58.2803 472.679 58.2803H501.716Z" fill="black"/>
<path d="M355.502 33.003H385.855L399.175 79.3416H401.624L414.943 33.003H445.296L418.737 99.0017H382.061L355.502 33.003Z" fill="black"/>
<path fill-rule="evenodd" clip-rule="evenodd" d="M312.504 100.407C279.319 100.407 269.559 85.004 269.559 66.0034C269.559 43.9852 281.271 31.5999 312.504 31.5999C343.736 31.5999 356.75 43.9852 356.75 66.0034C356.75 67.9162 356.717 69.7925 356.616 71.6203H298.189C298.189 73.7267 298.266 75.0599 299.048 76.5351C301.309 80.7985 305.576 83.5563 312.911 83.5563C321.972 83.5563 326.643 80.0457 326.643 76.5351H356.136C354.081 90.3841 345.571 100.407 312.504 100.407ZM327.226 58.2803C327.226 58.2803 327.149 56.245 326.367 54.7697C324.128 50.546 319.918 47.8 312.708 47.7493C305.497 47.8 301.288 50.546 299.048 54.7697C298.266 56.245 298.189 58.2803 298.189 58.2803H327.226Z" fill="black"/>
<path d="M170.574 32.9981H99V54.1915H134.533L99 77.804V98.9973H170.574V77.804H135.043L170.574 54.1915V32.9981Z" fill="black"/>
<path d="M82.5 0L50.6354 0.000101502L0 99L31.8658 98.9996L82.5 0Z" fill="black"/>
</svg>
