<svg width="94" height="16" fill="none" xmlns="http://www.w3.org/2000/svg"><path d="M.6 15.7v-3.3L8 3.8H.7V.3H13v3.3l-7.6 8.6h7.7v3.5H.6ZM18.1 6.6h7.8c-.1-1-.6-1.8-1.2-2.5-.7-.6-1.5-1-2.5-1-1.1 0-2 .4-2.7 1-.7.7-1.2 1.5-1.4 2.5Zm7.2 4.6h4l-.6 1.3c-.3.4-.7 1-1.3 1.5a6 6 0 0 1-2.1 1.5c-1 .3-2 .5-3.1.5-2.3 0-4.2-.7-5.7-2.2A8 8 0 0 1 14.3 8a7.6 7.6 0 0 1 7.8-8c2.2 0 4 .7 5.4 2.2a7.4 7.4 0 0 1 2.1 6.6v.4H18c.2 1 .6 2 1.4 2.6a4 4 0 0 0 2.7 1c.8 0 1.5-.1 2-.5.6-.3 1-.7 1.1-1.1ZM35.3 6.6h7.9c-.2-1-.7-1.8-1.3-2.5-.7-.6-1.5-1-2.5-1-1.1 0-2 .4-2.7 1-.7.7-1.2 1.5-1.4 2.5Zm7.2 4.6h4l-.6 1.3c-.3.4-.7 1-1.3 1.5a6 6 0 0 1-2.1 1.5c-1 .3-2 .5-3.1.5-2.3 0-4.2-.7-5.7-2.2A8 8 0 0 1 31.5 8a7.6 7.6 0 0 1 7.8-8c2.2 0 4 .7 5.4 2.2a7.4 7.4 0 0 1 2.1 6.6v.4H35.3c.2 1 .6 2 1.4 2.6a4 4 0 0 0 2.7 1c.8 0 1.5-.1 2-.5.6-.3 1-.7 1.1-1.1ZM52.5 15.7 47.2.3h4L54.8 11h.6L59 .3h4l-5.4 15.4h-5ZM67 6.6h7.8c-.1-1-.6-1.8-1.2-2.5-.7-.6-1.5-1-2.5-1-1.1 0-2 .4-2.7 1-.7.7-1.2 1.5-1.4 2.5Zm7.2 4.6h4l-.6 1.3c-.3.4-.7 1-1.3 1.5a6 6 0 0 1-2.2 1.5c-.9.3-1.9.5-3 .5-2.3 0-4.2-.7-5.7-2.2A8 8 0 0 1 63.2 8 7.6 7.6 0 0 1 71 0c2.2 0 4 .7 5.4 2.2a7.4 7.4 0 0 1 2.1 6.6v.4H67c.2 1 .6 2 1.4 2.6a4 4 0 0 0 2.7 1c.8 0 1.5-.1 2-.5.6-.3 1-.7 1.1-1.1ZM80.1 11h3.6c0 .5.3 1 .8 1.3.6.5 1.3.7 2.3.7 1.9 0 2.8-.6 2.8-1.7 0-.5-.1-.8-.4-1.1-.3-.3-.9-.5-1.7-.6l-2.4-.4c-3.3-.5-5-2-5-4.4 0-1.3.6-2.5 1.7-3.4C83 .4 84.6 0 86.6 0s3.6.6 4.8 1.7C92.5 2.7 93 3.9 93 5h-3.6c0-.5-.3-1-.8-1.4-.5-.4-1.2-.6-2-.6-1 0-1.6.2-2.1.6-.5.3-.7.7-.7 1.2 0 .8.7 1.2 2.1 1.4l2.6.4c3.2.5 4.8 2 4.8 4.7a4 4 0 0 1-1.7 3.4 7.8 7.8 0 0 1-5 1.3c-1 0-2-.1-2.8-.4-.9-.3-1.5-.6-2-1a6 6 0 0 1-1.7-2.6v-1Z" fill="#222"/></svg>