<svg width="1840" height="1840" viewBox="0 0 1840 1840" fill="none" xmlns="http://www.w3.org/2000/svg">
<path d="M920 1840V1840C989.938 1755.6 1111.7 1736.31 1204.3 1794.97V1794.97V1794.97C1244.73 1693.09 1354.57 1637.12 1460.76 1664.3V1664.3V1664.3C1467.73 1554.91 1554.91 1467.73 1664.3 1460.76V1460.76V1460.76C1637.12 1354.57 1693.09 1244.73 1794.97 1204.3V1204.3V1204.3C1736.31 1111.7 1755.6 989.939 1840 920V920V920C1755.6 850.062 1736.31 728.301 1794.97 635.704V635.704V635.704C1693.09 595.27 1637.12 485.428 1664.3 379.238V379.238V379.238C1554.91 372.265 1467.73 285.095 1460.76 175.704V175.704V175.704C1354.57 202.877 1244.73 146.91 1204.3 45.0281V45.0281V45.0281C1111.7 103.685 989.938 84.4005 920 0V0V0C850.061 84.4005 728.301 103.686 635.704 45.0281V45.0281V45.0281C595.27 146.91 485.428 202.877 379.238 175.704V175.704V175.704C372.265 285.095 285.095 372.265 175.704 379.238V379.238V379.238C202.877 485.428 146.91 595.27 45.028 635.704V635.704V635.704C103.685 728.301 84.4005 850.062 0 920V920V920C84.4006 989.939 103.686 1111.7 45.028 1204.3V1204.3V1204.3C146.91 1244.73 202.877 1354.57 175.704 1460.76V1460.76V1460.76C285.095 1467.73 372.265 1554.91 379.238 1664.3V1664.3V1664.3C485.428 1637.12 595.27 1693.09 635.704 1794.97V1794.97V1794.97C728.301 1736.31 850.061 1755.6 920 1840V1840Z" fill="white"/>
</svg>
